<svg width="24" height="24" viewBox="0 0 24 24" fill="none" xmlns="http://www.w3.org/2000/svg">
<path d="M2 14C2 16 3 17 5 17H7" stroke="white" stroke-width="1.5" stroke-linecap="round" stroke-linejoin="round"/>
<path d="M15 8.37003V7.41003C15 4.43003 12.93 3.29003 10.41 4.87003L7.49 6.70003C7.17 6.89003 6.8 7.00003 6.43 7.00003H5C3 7.00003 2 8.00003 2 10" stroke="white" stroke-width="1.5" stroke-linecap="round" stroke-linejoin="round"/>
<path d="M10.4099 19.13C12.9299 20.71 14.9999 19.56 14.9999 16.59V12.95" stroke="white" stroke-width="1.5" stroke-linecap="round" stroke-linejoin="round"/>
<path d="M18.81 9.41992C19.71 11.5699 19.44 14.0799 18 15.9999" stroke="white" stroke-width="1.5" stroke-linecap="round" stroke-linejoin="round"/>
<path d="M20.7801 17C20.5101 17.52 20.2001 18.02 19.8401 18.5" stroke="white" stroke-width="1.5" stroke-linecap="round" stroke-linejoin="round"/>
<path d="M21.1499 7.80005C21.9799 9.77005 22.1999 11.93 21.8099 14" stroke="white" stroke-width="1.5" stroke-linecap="round" stroke-linejoin="round"/>
<path d="M22 2L2 22" stroke="white" stroke-width="1.5" stroke-linecap="round" stroke-linejoin="round"/>
</svg>
